<svg id="Сгруппировать_789" data-name="Сгруппировать 789" xmlns="http://www.w3.org/2000/svg" xmlns:xlink="http://www.w3.org/1999/xlink" width="424.803" height="306.688" viewBox="0 0 424.803 306.688">
  <defs>
    <linearGradient id="linear-gradient" x1="-2.239" y1="-4.833" x2="2.33" y2="4.064" gradientUnits="objectBoundingBox">
      <stop offset="0" stop-color="#005c47"/>
      <stop offset="1" stop-color="#013e29"/>
    </linearGradient>
    <linearGradient id="linear-gradient-2" x1="-2.574" y1="-5.264" x2="1.893" y2="3.632" xlink:href="#linear-gradient"/>
    <linearGradient id="linear-gradient-3" x1="-4.35" y1="-5.695" x2="2.619" y2="3.088" xlink:href="#linear-gradient"/>
    <linearGradient id="linear-gradient-4" x1="-2.983" y1="-6.077" x2="1.484" y2="2.819" xlink:href="#linear-gradient"/>
  </defs>
  <g id="Сгруппировать_786" data-name="Сгруппировать 786" transform="translate(0)">
    <g id="Сгруппировать_785" data-name="Сгруппировать 785">
      <g id="Сгруппировать_779" data-name="Сгруппировать 779" transform="translate(0 30.271)">
        <path id="Контур_2407" data-name="Контур 2407" d="M499.154,830.738l42.7,13.758,16.937,13.64H923l-35.468-35.468Z" transform="translate(-499.154 -591.712)" fill="#3099aa"/>
        <path id="Контур_2408" data-name="Контур 2408" d="M550.659,320.555l-6.844-.5-44.66,235.658h89.364Z" transform="translate(-499.154 -316.682)" fill="#52afcc"/>
        <path id="Контур_2409" data-name="Контур 2409" d="M971.818,589.028H620.25a7.475,7.475,0,0,1-7.317-7.018L597.8,318.977a6.043,6.043,0,0,1,6.21-6.366H938.427a7.521,7.521,0,0,1,7.353,6.366L977.875,582.01A6.04,6.04,0,0,1,971.818,589.028Z" transform="translate(-553.125 -312.611)" fill="#67c6ed"/>
        <path id="Контур_2410" data-name="Контур 2410" d="M1116.311,525.97,1096.475,363.4c-79.759,80.939-152.8,167.823-227,253.419h154.625C1054.33,585.9,1085.8,556.3,1116.311,525.97Z" transform="translate(-701.79 -340.404)" fill="#fff" opacity="0.15"/>
        <path id="Контур_2411" data-name="Контур 2411" d="M967.622,594.743H651.807a9.057,9.057,0,0,1-8.873-8.249l-17.56-229.378a7.171,7.171,0,0,1,7.379-7.733H938.214a9.114,9.114,0,0,1,8.907,7.733l27.745,229.378A7.156,7.156,0,0,1,967.622,594.743Z" transform="translate(-568.209 -332.732)" fill="#fff"/>
      </g>
      <path id="Контур_2412" data-name="Контур 2412" d="M1182.81,812.64" transform="translate(-873.248 -555.954)" fill="#00e1f1"/>
      <g id="Сгруппировать_780" data-name="Сгруппировать 780" transform="translate(63.668)">
        <path id="Контур_2413" data-name="Контур 2413" d="M676.147,320.818a6.524,6.524,0,1,1-6.524-6.524A6.524,6.524,0,0,1,676.147,320.818Z" transform="translate(-652.532 -283.261)" fill="#00aaa5"/>
        <path id="Контур_2414" data-name="Контур 2414" d="M655.169,245.758c-8.639,0-15.406,9.065-15.406,20.638a26.784,26.784,0,0,0,1.733,9.633h11.819c-1.735-1.51-3.4-4.946-3.4-9.633,0-6.4,3.112-10.488,5.256-10.488s5.256,4.086,5.256,10.488c0,4.68-3.762,10.044-6.163,12.169l-.026.023a4.383,4.383,0,0,0-.851,6.238,5.871,5.871,0,0,0,5.388,1.455c7.135-1.6,11.8-9.566,11.8-19.885C670.575,254.823,663.808,245.758,655.169,245.758Z" transform="translate(-639.763 -245.758)" fill="#acca3d"/>
        <path id="Контур_2415" data-name="Контур 2415" d="M657.876,245.758c-5.652,0-10.487,3.894-13.166,9.817,4.661-1.8,9.508-7.734,15.273-5.428,11.6,5.8,2.9,20.3,10.15,24.65a2.6,2.6,0,0,0,1.751.738,28.968,28.968,0,0,0,1.4-9.138C673.282,254.823,666.515,245.758,657.876,245.758Z" transform="translate(-642.47 -245.758)" fill="#fff" opacity="0.15"/>
      </g>
      <g id="Сгруппировать_781" data-name="Сгруппировать 781" transform="translate(131.734)">
        <path id="Контур_2416" data-name="Контур 2416" d="M826.467,320.818a6.524,6.524,0,1,1-6.524-6.524A6.525,6.525,0,0,1,826.467,320.818Z" transform="translate(-802.852 -283.261)" fill="#00aaa5"/>
        <path id="Контур_2417" data-name="Контур 2417" d="M805.489,245.758c-8.639,0-15.406,9.065-15.406,20.638a26.785,26.785,0,0,0,1.733,9.633h11.819c-1.735-1.51-3.4-4.946-3.4-9.633,0-6.4,3.113-10.488,5.256-10.488s5.257,4.086,5.257,10.488c0,4.68-3.762,10.044-6.163,12.169l-.026.023a4.383,4.383,0,0,0-.851,6.238,5.872,5.872,0,0,0,5.389,1.455c7.135-1.6,11.8-9.566,11.8-19.885C820.9,254.823,814.128,245.758,805.489,245.758Z" transform="translate(-790.083 -245.758)" fill="#acca3d"/>
        <path id="Контур_2418" data-name="Контур 2418" d="M808.2,245.758c-5.651,0-10.487,3.894-13.166,9.817,4.66-1.8,9.508-7.734,15.273-5.428,11.6,5.8,2.9,20.3,10.15,24.65a2.594,2.594,0,0,0,1.75.738,28.955,28.955,0,0,0,1.4-9.138C823.6,254.823,816.835,245.758,808.2,245.758Z" transform="translate(-792.79 -245.758)" fill="#fff" opacity="0.15"/>
      </g>
      <g id="Сгруппировать_782" data-name="Сгруппировать 782" transform="translate(199.799)">
        <path id="Контур_2419" data-name="Контур 2419" d="M976.786,320.818a6.524,6.524,0,1,1-6.524-6.524A6.524,6.524,0,0,1,976.786,320.818Z" transform="translate(-953.171 -283.261)" fill="#00aaa5"/>
        <path id="Контур_2420" data-name="Контур 2420" d="M955.808,245.758c-8.639,0-15.406,9.065-15.406,20.638a26.794,26.794,0,0,0,1.733,9.633h11.819c-1.734-1.51-3.4-4.946-3.4-9.633,0-6.4,3.112-10.488,5.256-10.488s5.256,4.086,5.256,10.488c0,4.68-3.761,10.044-6.162,12.169l-.026.023a4.383,4.383,0,0,0-.851,6.238,5.872,5.872,0,0,0,5.389,1.455c7.135-1.6,11.8-9.566,11.8-19.885C971.214,254.823,964.447,245.758,955.808,245.758Z" transform="translate(-940.402 -245.758)" fill="#acca3d"/>
        <path id="Контур_2421" data-name="Контур 2421" d="M958.515,245.758c-5.652,0-10.487,3.894-13.166,9.817,4.661-1.8,9.508-7.734,15.273-5.428,11.6,5.8,2.9,20.3,10.15,24.65a2.594,2.594,0,0,0,1.75.738,28.969,28.969,0,0,0,1.4-9.138C973.921,254.823,967.154,245.758,958.515,245.758Z" transform="translate(-943.109 -245.758)" fill="#fff" opacity="0.15"/>
      </g>
      <g id="Сгруппировать_783" data-name="Сгруппировать 783" transform="translate(267.864)">
        <path id="Контур_2422" data-name="Контур 2422" d="M1127.106,320.818a6.524,6.524,0,1,1-6.525-6.524A6.524,6.524,0,0,1,1127.106,320.818Z" transform="translate(-1103.491 -283.261)" fill="#00aaa5"/>
        <path id="Контур_2423" data-name="Контур 2423" d="M1106.128,245.758c-8.639,0-15.406,9.065-15.406,20.638a26.786,26.786,0,0,0,1.733,9.633h11.819c-1.734-1.51-3.4-4.946-3.4-9.633,0-6.4,3.112-10.488,5.256-10.488s5.256,4.086,5.256,10.488c0,4.68-3.762,10.044-6.163,12.169l-.025.023a4.383,4.383,0,0,0-.851,6.238,5.871,5.871,0,0,0,5.389,1.455c7.135-1.6,11.8-9.566,11.8-19.885C1121.534,254.823,1114.767,245.758,1106.128,245.758Z" transform="translate(-1090.722 -245.758)" fill="#acca3d"/>
        <path id="Контур_2424" data-name="Контур 2424" d="M1108.835,245.758c-5.651,0-10.487,3.894-13.166,9.817,4.661-1.8,9.508-7.734,15.273-5.428,11.6,5.8,2.9,20.3,10.15,24.65a2.594,2.594,0,0,0,1.75.738,28.969,28.969,0,0,0,1.4-9.138C1124.241,254.823,1117.474,245.758,1108.835,245.758Z" transform="translate(-1093.429 -245.758)" fill="#fff" opacity="0.15"/>
      </g>
      <g id="Сгруппировать_784" data-name="Сгруппировать 784" transform="translate(335.93)">
        <path id="Контур_2425" data-name="Контур 2425" d="M1277.426,320.818a6.524,6.524,0,1,1-6.524-6.524A6.524,6.524,0,0,1,1277.426,320.818Z" transform="translate(-1253.811 -283.261)" fill="#00aaa5"/>
        <path id="Контур_2426" data-name="Контур 2426" d="M1256.448,245.758c-8.639,0-15.406,9.065-15.406,20.638a26.784,26.784,0,0,0,1.733,9.633h11.819c-1.735-1.51-3.4-4.946-3.4-9.633,0-6.4,3.113-10.488,5.257-10.488s5.256,4.086,5.256,10.488c0,4.68-3.762,10.044-6.163,12.169l-.026.023a4.383,4.383,0,0,0-.851,6.238,5.873,5.873,0,0,0,5.389,1.455c7.135-1.6,11.8-9.566,11.8-19.885C1271.854,254.823,1265.087,245.758,1256.448,245.758Z" transform="translate(-1241.042 -245.758)" fill="#acca3d"/>
        <path id="Контур_2427" data-name="Контур 2427" d="M1259.155,245.758c-5.652,0-10.487,3.894-13.166,9.817,4.66-1.8,9.508-7.734,15.273-5.428,11.6,5.8,2.9,20.3,10.15,24.65a2.6,2.6,0,0,0,1.75.738,28.955,28.955,0,0,0,1.4-9.138C1274.561,254.823,1267.794,245.758,1259.155,245.758Z" transform="translate(-1243.749 -245.758)" fill="#fff" opacity="0.15"/>
      </g>
    </g>
  </g>
  <g id="Сгруппировать_787" data-name="Сгруппировать 787" transform="translate(179.916 83.277)">
    <path id="Контур_2428" data-name="Контур 2428" d="M908.741,473.532l-7.646,2.266a3.057,3.057,0,0,1-3.257-.638,3.61,3.61,0,0,1-1.345-3.115l2.832-29.664h1.062q1.343.355,1.487.779a.9.9,0,0,1-.354.779,8.622,8.622,0,0,0-.921.779q-.567.567-.354.849a2.179,2.179,0,0,0,1.345,1.132,3.921,3.921,0,0,0,2.478.213q-.921-.494-.779-1.062a2.766,2.766,0,0,1,.425-1.062,1.973,1.973,0,0,0,.5-.991q0-.566-.849-1.062,5.167-.353,9.274-.638,1.912-.069,4.461-.212t5.664-.283l.5.354q4.53-.213,9.133-.638a62.927,62.927,0,0,1,8.5-.141h.213a40.28,40.28,0,0,0-4.389-.212,5.258,5.258,0,0,1-3.894-1.416l-2.619,1.629a3.636,3.636,0,0,0-1.7-.5,7,7,0,0,0-1.7.212q-1.7.213-1.77.213a2.534,2.534,0,0,1-1.77-.425,16.647,16.647,0,0,1-4.885.5q-1.418-.069-4.106-.212a38.8,38.8,0,0,0-3.894-.142,15.16,15.16,0,0,0-4.673.779q-1.345-.425-1.416-.849a1.188,1.188,0,0,1-.071-.921c0-.047.071-.354.213-.92q.141-.354-.354-1.062a1.424,1.424,0,0,1,1.345-.425,6,6,0,0,0,1.841,0l-.85-.5-.708.5a1.81,1.81,0,0,0-1.062-.425,9.328,9.328,0,0,0-1.274-.071q-1.417.213-1.487.637a.85.85,0,0,0,.213.849,4.077,4.077,0,0,0,.778.991,1.363,1.363,0,0,1,.5.849,2.316,2.316,0,0,1-1.77.779,11.52,11.52,0,0,1-2.194.141l.5-4.744a3.245,3.245,0,0,1,2.973-3.186l21.1-3.327h.142a25.617,25.617,0,0,1,10.195.6,12.555,12.555,0,0,1,7.5,5.77l-1.735-.142q-.886-.07-1.734-.212a51.65,51.65,0,0,0-11.115.212,3.432,3.432,0,0,0,2.478.425,1.868,1.868,0,0,1,2.124.85,37.049,37.049,0,0,1,8.779-.921,10.705,10.705,0,0,0,1.416.071,16.46,16.46,0,0,1,.92,1.841.756.756,0,0,1-.248-.035.6.6,0,0,0-.177-.035.619.619,0,0,0-.141.778,8.043,8.043,0,0,0,.566.708c.188.283.307.473.354.566q.069.355-.779.638l1.274-.071a31.354,31.354,0,0,1,.673,7.894q-.106,4.638-.177,7.611-.425,7.081-1.2,14.3T941.449,485q-2.2,18.478-3.575,37.168t-2.514,37.168a3.265,3.265,0,0,1-3.185,3.327l-28.885,3.4A4.019,4.019,0,0,1,900.317,565a3.321,3.321,0,0,1-.992-2.9Zm-8.5-2.053h1.2v-.354h-1.2Zm4.885-8.142v-.425h-1.2v.425Zm3.186,2.974-2.974-.425a5.3,5.3,0,0,0-.566.5,1.612,1.612,0,0,1-.5.425q.85-.07,1.522-.177t1.168-.177Q908.245,466.311,908.317,466.311Zm-1.2,53.169a6.328,6.328,0,0,0-1.2-.142,13.561,13.561,0,0,1-1.487-.071,1.621,1.621,0,0,1,.566.566.53.53,0,0,0,.5.425,2.553,2.553,0,0,0,1.133-.212C906.947,519.81,907.113,519.621,907.113,519.479Zm1.345-.992a2.96,2.96,0,0,0-1.7-.283h-1.77a5.5,5.5,0,0,0,1.274.566q.212.071,1.7.708A1.149,1.149,0,0,1,908.458,518.488Zm3.752,8.5-1.062-.637H909.52l-1.911,1.061a5.419,5.419,0,0,1,.5.354.449.449,0,0,0,.213.213,3.608,3.608,0,0,1,.353.212,14.928,14.928,0,0,0,1.912-.637A13.98,13.98,0,0,1,912.21,526.983Zm-4.106,3.611,1.416-.212-.354-.283-1.062.283Zm3.044-19.115a3.272,3.272,0,0,0-1.628-.638q-1.2.143-1.2.638l1.061.5A4.043,4.043,0,0,0,911.148,511.479Zm-1.628,21.1-.85.283a.788.788,0,0,1-.353.071,6.112,6.112,0,0,0,.991-.071Q910.086,532.86,909.52,532.577Zm0-10.761h1.628v-.5H909.52Zm15.434-85.168a23.3,23.3,0,0,0-4.106-.425,20.3,20.3,0,0,0-3.328.142q-1.062.071-3.327.354a35.467,35.467,0,0,1-4.035.212v.5a22.118,22.118,0,0,0,2.9.071,9.53,9.53,0,0,0,2.124-.283,4.367,4.367,0,0,0,.921-.106q.494-.106,1.062-.177a21.849,21.849,0,0,1,2.478,0l.708-.283,2.974,1.982q-.355-.637.354-1.2Q923.75,437.356,924.954,436.647ZM910.44,516.931h2.124q-1.418-.566-1.416-1.2c-.1,0-.283.213-.566.638A2.272,2.272,0,0,0,910.44,516.931Zm.708,18.266h1.2v-.425h-1.2Zm3.327-90.408q-1.841-.991-2.548-.071-.85.992-.425,1.628a2.258,2.258,0,0,0,1.558.566Q912.564,445.638,914.475,444.789Zm.567,33.062,1.557.213-.212-.638Zm.708,18.62h.991L916.6,495.2h-.708Zm6.159,14.372-.354.779a3.079,3.079,0,0,0,1.628.354l.354-1.133Zm3.61,19.54v.637h1.345v-.637Zm.921,6.3a1.42,1.42,0,0,0-.849.425Zm.991-25.7q-.708.424-.708.849c0,.379.046.566.141.566h1.416a1.283,1.283,0,0,0,.567-1.062,2.025,2.025,0,0,0-1.2-.354Zm-.566-7.575.354.849.708.5v-.638Zm1.416,2.478a2.522,2.522,0,0,0-1.062.566l.708.638a1.343,1.343,0,0,0,1.062-.5A.626.626,0,0,0,928.281,505.886Zm-.566-5.31c0,.1-.071.142-.212.142-.237.378-.284.59-.142.637l1.415-.212q0-.919-1.415-.921A.312.312,0,0,0,927.715,500.576Zm-.425,7.93,3.186-.5-3.186-.425Zm4.461,22.513a2.069,2.069,0,0,1-1.345-.5l.284-1.557a2.879,2.879,0,0,0-1.558-.567,1.151,1.151,0,0,0-.141.637.293.293,0,0,1,.071.212.412.412,0,0,0-.283-.141.98.98,0,0,0-.849.141,1.332,1.332,0,0,0-.566.638,13.916,13.916,0,0,1,1.415,1.345,8.582,8.582,0,0,0,1.416,1.487q.282-.141.637-.283l.212-.142.142-.142Zm-3.894-28.6v-.141h-.141a1.133,1.133,0,0,0,.141.5h.566c-.142-.046-.212-.117-.212-.212a.292.292,0,0,0-.071-.213.282.282,0,0,1-.071-.212Zm.283,25.912a3.113,3.113,0,0,0,1.487-.425,2.638,2.638,0,0,0,1.2-1.062,3,3,0,0,0-1.77.071q-.992.568-1.062.638Zm2.195-7.929a19.92,19.92,0,0,0-2.124.921,2.059,2.059,0,0,0,1.133.212h1.345Zm.141-26.9v-.425h-1.2v.92h1.416v-.283Zm2.124,6.584V499.8c-.945.331-1.487.52-1.629.567l-.354.071c-.095,0-.141.024-.141.071s-.118.071-.354.071v.779c-.283.237-.354.425-.212.566h1.415V501a2.242,2.242,0,0,0,1.416-.283.482.482,0,0,0-.141-.354Zm-1.911,22.8h-.708v.213h.708Zm1.345-11.044a.919.919,0,0,0-1.628.425.556.556,0,0,0-.071.779,1.137,1.137,0,0,0,.92.141,5.892,5.892,0,0,0,.779-.424Zm-1.345,6.088v.638h1.062v-.638Zm3.257-11.256a.456.456,0,0,0-.425-.283.431.431,0,0,1-.248-.071,1.067,1.067,0,0,1-.177-.142.62.62,0,0,0,.425-.708,3.743,3.743,0,0,1-.071-.849H932.6l-.425.425-.425.425a1.8,1.8,0,0,1-.921.566A8.172,8.172,0,0,0,933.945,506.665Zm-2.266-9.841a1.733,1.733,0,0,0-.708,1.2,1.325,1.325,0,0,1,.708.142,2.937,2.937,0,0,0,.708.071l.708-.637A1.979,1.979,0,0,0,931.679,496.824Zm-.283-5.451v.708h1.062v-.708Zm.142,35.61.708.142.354-.638-.708-.283Zm1.77,2.974a4.314,4.314,0,0,1-1.2-.212l-.566.991a5,5,0,0,1,1.416.142h.92q.85,0,.85-.921Zm.212-10.62v-.212H932.1v1.132l1.557-.212a.82.82,0,0,0-.142-.566Zm1.416,5.451a1.6,1.6,0,0,1-1.062-.354,1.228,1.228,0,0,1-.354.142v.141h-.354l-.566-.283a1.213,1.213,0,0,0-.5.921,1.226,1.226,0,0,0,.354.708q.283.425,1.416.425a1.155,1.155,0,0,0,.85-.283l.212-.071Zm-.212-20.177c.094-.046.117-.212.071-.5a5.575,5.575,0,0,0-.213-.708h-1.274a4.009,4.009,0,0,0-1.062,0v1.062A13.944,13.944,0,0,1,934.724,504.612Zm-.213,27.469h-.283a.2.2,0,0,0-.142.071,7.169,7.169,0,0,0-.708.425,2.668,2.668,0,0,0-.779,1.061l1.557.213h.071a1.5,1.5,0,0,0,.354.283l.354-.283a1,1,0,0,0-.071-.425,3.885,3.885,0,0,0,1.275-1.345Zm-.637-7.93a2.2,2.2,0,0,0,0-.779,1.5,1.5,0,0,1-.354.283h-.212c0,.1.071.141.212.141a.289.289,0,0,0,.106.177A.913.913,0,0,0,933.874,524.151Zm.991,11.045a1.056,1.056,0,0,0-.779-.283h-.637l.212.779a1.668,1.668,0,0,0,.708-.213Q935.007,535.055,934.865,535.2Zm1.487-88.072,1.2-1.7-3.327.566Q933.8,447.266,936.352,447.125Zm-1.982,71.434c.141.142.212.237.212.283h.142a1.243,1.243,0,0,0,.566.141q1.415,0,1.416-.92l-1.416-.283Zm.708-19.753q-.425.355,0,.638v.5l1.628-.283A2.23,2.23,0,0,0,935.077,498.806Zm1.2,37.381a.291.291,0,0,0-.071-.212c-.048,0-.071-.047-.071-.142q-.213-.212-.213-.283h-.849l-.212.92a1.758,1.758,0,0,0,.779-.142A2.259,2.259,0,0,1,936.281,536.187Zm-1.062-8.637q0,.779.212.849v.567q1.487.283,1.77-.142a1.373,1.373,0,0,0-.212-.708l-.283-.566Zm2.195-5.452a1.42,1.42,0,0,0-1.062-.567.761.761,0,0,0-.141.425.413.413,0,0,1,.141.283.224.224,0,0,0,.142.212C937.106,522.311,937.414,522.194,937.414,522.1Z" transform="translate(-896.493 -429.673)" fill="#acca3d"/>
    <path id="Контур_2429" data-name="Контур 2429" d="M1020.063,473.532l-7.646,2.266a3.057,3.057,0,0,1-3.257-.638,3.61,3.61,0,0,1-1.345-3.115l2.832-29.664h1.062q1.343.355,1.487.779a.9.9,0,0,1-.354.779,8.622,8.622,0,0,0-.921.779q-.567.567-.354.849a2.182,2.182,0,0,0,1.345,1.132,3.921,3.921,0,0,0,2.478.213q-.921-.494-.779-1.062a2.773,2.773,0,0,1,.425-1.062,1.975,1.975,0,0,0,.5-.991q0-.566-.849-1.062,5.167-.353,9.274-.638,1.911-.069,4.46-.212t5.664-.283l.5.354q4.53-.213,9.133-.638a62.926,62.926,0,0,1,8.5-.141h.213a40.285,40.285,0,0,0-4.389-.212,5.258,5.258,0,0,1-3.894-1.416l-2.619,1.629a3.638,3.638,0,0,0-1.7-.5,7,7,0,0,0-1.7.212q-1.7.213-1.77.213a2.533,2.533,0,0,1-1.77-.425,16.647,16.647,0,0,1-4.885.5q-1.418-.069-4.106-.212a38.793,38.793,0,0,0-3.894-.142,15.158,15.158,0,0,0-4.673.779q-1.345-.425-1.416-.849a1.19,1.19,0,0,1-.071-.921c0-.047.071-.354.213-.92q.141-.354-.354-1.062a1.422,1.422,0,0,1,1.345-.425,6,6,0,0,0,1.841,0l-.849-.5-.708.5a1.809,1.809,0,0,0-1.062-.425,9.333,9.333,0,0,0-1.274-.071q-1.417.213-1.487.637a.849.849,0,0,0,.212.849,4.089,4.089,0,0,0,.778.991,1.362,1.362,0,0,1,.5.849,2.316,2.316,0,0,1-1.77.779,11.52,11.52,0,0,1-2.194.141l.5-4.744a3.246,3.246,0,0,1,2.973-3.186l21.1-3.327h.141a25.617,25.617,0,0,1,10.195.6,12.555,12.555,0,0,1,7.5,5.77l-1.735-.142q-.886-.07-1.734-.212a51.647,51.647,0,0,0-11.115.212,3.43,3.43,0,0,0,2.477.425,1.868,1.868,0,0,1,2.124.85,37.049,37.049,0,0,1,8.779-.921,10.707,10.707,0,0,0,1.416.071,16.356,16.356,0,0,1,.921,1.841.759.759,0,0,1-.248-.035.6.6,0,0,0-.177-.035.62.62,0,0,0-.142.778,8.013,8.013,0,0,0,.567.708q.282.425.354.566.069.355-.779.638l1.274-.071a31.351,31.351,0,0,1,.672,7.894q-.106,4.638-.177,7.611-.425,7.081-1.2,14.3T1052.772,485q-2.2,18.478-3.576,37.168t-2.513,37.168a3.265,3.265,0,0,1-3.186,3.327l-28.885,3.4a4.02,4.02,0,0,1-2.973-1.062,3.32,3.32,0,0,1-.991-2.9Zm-8.5-2.053h1.2v-.354h-1.2Zm4.885-8.142v-.425h-1.2v.425Zm3.186,2.974-2.974-.425a5.3,5.3,0,0,0-.566.5,1.616,1.616,0,0,1-.5.425q.85-.07,1.522-.177t1.168-.177Q1019.568,466.311,1019.639,466.311Zm-1.2,53.169a6.333,6.333,0,0,0-1.2-.142,13.562,13.562,0,0,1-1.487-.071,1.617,1.617,0,0,1,.566.566.531.531,0,0,0,.5.425,2.554,2.554,0,0,0,1.133-.212C1018.269,519.81,1018.436,519.621,1018.436,519.479Zm1.345-.992a2.961,2.961,0,0,0-1.7-.283h-1.77a5.518,5.518,0,0,0,1.275.566q.212.071,1.7.708A1.149,1.149,0,0,1,1019.781,518.488Zm3.752,8.5-1.062-.637h-1.629l-1.911,1.061a5.456,5.456,0,0,1,.5.354.451.451,0,0,0,.212.213,3.606,3.606,0,0,1,.354.212,14.9,14.9,0,0,0,1.912-.637A13.985,13.985,0,0,1,1023.533,526.983Zm-4.106,3.611,1.415-.212-.354-.283-1.062.283Zm3.044-19.115a3.272,3.272,0,0,0-1.629-.638q-1.2.143-1.2.638l1.062.5A4.045,4.045,0,0,0,1022.471,511.479Zm-1.629,21.1-.849.283a.789.789,0,0,1-.354.071,6.123,6.123,0,0,0,.991-.071Q1021.408,532.86,1020.842,532.577Zm0-10.761h1.629v-.5h-1.629Zm15.434-85.168a23.3,23.3,0,0,0-4.107-.425,20.305,20.305,0,0,0-3.328.142q-1.062.071-3.327.354a35.458,35.458,0,0,1-4.035.212v.5a22.12,22.12,0,0,0,2.9.071,9.529,9.529,0,0,0,2.124-.283,4.361,4.361,0,0,0,.92-.106q.494-.106,1.062-.177a21.857,21.857,0,0,1,2.478,0l.708-.283,2.974,1.982q-.355-.637.354-1.2Q1035.072,437.356,1036.277,436.647Zm-14.514,80.284h2.124q-1.418-.566-1.416-1.2-.143,0-.567.638A2.286,2.286,0,0,0,1021.763,516.931Zm.708,18.266h1.2v-.425h-1.2Zm3.327-90.408q-1.841-.991-2.548-.071-.85.992-.425,1.628a2.257,2.257,0,0,0,1.557.566Q1023.886,445.638,1025.8,444.789Zm.567,33.062,1.557.213-.212-.638Zm.707,18.62h.991l-.141-1.275h-.708Zm6.16,14.372-.354.779a3.081,3.081,0,0,0,1.629.354l.354-1.133Zm3.611,19.54v.637h1.345v-.637Zm.921,6.3a1.422,1.422,0,0,0-.85.425Zm.991-25.7q-.708.424-.708.849c0,.379.046.566.142.566h1.416a1.282,1.282,0,0,0,.567-1.062,2.024,2.024,0,0,0-1.2-.354Zm-.566-7.575.354.849.708.5v-.638Zm1.416,2.478a2.52,2.52,0,0,0-1.062.566l.708.638a1.344,1.344,0,0,0,1.062-.5A.626.626,0,0,0,1039.6,505.886Zm-.566-5.31c0,.1-.071.142-.212.142-.237.378-.283.59-.142.637l1.416-.212q0-.919-1.416-.921A.312.312,0,0,0,1039.037,500.576Zm-.425,7.93,3.186-.5-3.186-.425Zm4.46,22.513a2.069,2.069,0,0,1-1.345-.5l.283-1.557a2.878,2.878,0,0,0-1.558-.567,1.152,1.152,0,0,0-.141.637.293.293,0,0,1,.071.212.413.413,0,0,0-.283-.141.98.98,0,0,0-.849.141,1.335,1.335,0,0,0-.566.638,13.877,13.877,0,0,1,1.416,1.345,8.568,8.568,0,0,0,1.416,1.487q.281-.141.637-.283l.212-.142.142-.142Zm-3.894-28.6v-.141h-.141a1.134,1.134,0,0,0,.141.5h.567c-.142-.046-.212-.117-.212-.212a.292.292,0,0,0-.071-.213.285.285,0,0,1-.071-.212Zm.283,25.912a3.11,3.11,0,0,0,1.487-.425,2.637,2.637,0,0,0,1.2-1.062,3,3,0,0,0-1.77.071q-.992.568-1.062.638Zm2.195-7.929a19.843,19.843,0,0,0-2.124.921,2.058,2.058,0,0,0,1.133.212h1.345Zm.142-26.9v-.425h-1.2v.92h1.416v-.283Zm2.124,6.584V499.8q-1.417.5-1.628.567l-.354.071c-.095,0-.141.024-.141.071s-.119.071-.354.071v.779c-.283.237-.354.425-.212.566h1.416V501a2.244,2.244,0,0,0,1.416-.283.481.481,0,0,0-.142-.354Zm-1.911,22.8h-.708v.213h.708Zm1.345-11.044a.919.919,0,0,0-1.629.425.557.557,0,0,0-.071.779,1.138,1.138,0,0,0,.921.141,5.9,5.9,0,0,0,.779-.424Zm-1.345,6.088v.638h1.062v-.638Zm3.257-11.256a.456.456,0,0,0-.425-.283.432.432,0,0,1-.248-.071,1.069,1.069,0,0,1-.177-.142.62.62,0,0,0,.425-.708,3.739,3.739,0,0,1-.071-.849h-.85l-.425.425-.425.425a1.8,1.8,0,0,1-.92.566A8.168,8.168,0,0,0,1045.267,506.665ZM1043,496.824a1.733,1.733,0,0,0-.708,1.2,1.325,1.325,0,0,1,.708.142,2.931,2.931,0,0,0,.708.071l.708-.637A1.979,1.979,0,0,0,1043,496.824Zm-.283-5.451v.708h1.062v-.708Zm.142,35.61.708.142.354-.638-.708-.283Zm1.77,2.974a4.314,4.314,0,0,1-1.2-.212l-.566.991a4.991,4.991,0,0,1,1.415.142h.921q.85,0,.849-.921Zm.212-10.62v-.212h-1.416v1.132l1.557-.212a.822.822,0,0,0-.141-.566Zm1.416,5.451a1.6,1.6,0,0,1-1.062-.354,1.232,1.232,0,0,1-.354.142v.141h-.354l-.567-.283a1,1,0,0,0-.141,1.628q.283.425,1.416.425a1.153,1.153,0,0,0,.849-.283l.212-.071Zm-.212-20.177c.094-.046.117-.212.071-.5a5.631,5.631,0,0,0-.212-.708h-1.274a4,4,0,0,0-1.062,0v1.062A13.938,13.938,0,0,1,1046.046,504.612Zm-.212,27.469h-.283a.2.2,0,0,0-.142.071,7.127,7.127,0,0,0-.708.425,2.67,2.67,0,0,0-.779,1.061l1.558.213h.071a1.487,1.487,0,0,0,.354.283l.354-.283a1,1,0,0,0-.071-.425,3.883,3.883,0,0,0,1.274-1.345Zm-.637-7.93a2.2,2.2,0,0,0,0-.779,1.505,1.505,0,0,1-.354.283h-.212c0,.1.071.141.212.141a.289.289,0,0,0,.106.177A.913.913,0,0,0,1045.2,524.151Zm.991,11.045a1.057,1.057,0,0,0-.779-.283h-.637l.212.779a1.665,1.665,0,0,0,.708-.213Q1046.329,535.055,1046.188,535.2Zm1.487-88.072,1.2-1.7-3.327.566Q1045.126,447.266,1047.675,447.125Zm-1.982,71.434c.142.142.212.237.212.283h.142a1.245,1.245,0,0,0,.566.141q1.415,0,1.416-.92l-1.416-.283Zm1.912,17.628a.291.291,0,0,0-.071-.212c-.048,0-.071-.047-.071-.142-.141-.141-.212-.235-.212-.283h-.85l-.212.92a1.761,1.761,0,0,0,.779-.142A2.256,2.256,0,0,1,1047.6,536.187Zm-1.2-37.381q-.424.355,0,.638v.5l1.629-.283A2.23,2.23,0,0,0,1046.4,498.806Zm.142,28.744q0,.779.212.849v.567q1.488.283,1.77-.142a1.373,1.373,0,0,0-.212-.708l-.283-.566Zm2.195-5.452a1.42,1.42,0,0,0-1.062-.567.758.758,0,0,0-.142.425.412.412,0,0,1,.142.283.224.224,0,0,0,.142.212C1048.429,522.311,1048.737,522.194,1048.737,522.1Z" transform="translate(-957.409 -429.673)" fill="#acca3d"/>
  </g>
  <g id="Сгруппировать_788" data-name="Сгруппировать 788" transform="translate(164.635 241.698)">
    <path id="Контур_2430" data-name="Контур 2430" d="M871.438,779.539l6.588,15.125,6.588-15.125h8.693v27.327h-7.095l-.039-16.178-5.5,13.489h-5.3l-5.5-13.489v16.178h-7.134V779.539Z" transform="translate(-862.745 -779.539)" fill="url(#linear-gradient)"/>
    <path id="Контур_2431" data-name="Контур 2431" d="M969.391,802.5H958.359l-1.638,4.366h-8.342l11.656-27.327h8.342l11.266,27.327h-8.654Zm-2.144-5.925-3.275-8.927-3.352,8.927Z" transform="translate(-909.604 -779.539)" fill="url(#linear-gradient-2)"/>
    <path id="Контур_2432" data-name="Контур 2432" d="M1041.635,807.217a13.12,13.12,0,0,1-10.1-4.561l3.7-5.341c2.066,2.105,4.249,3.08,5.73,3.08s2.417-.936,2.417-2.768V786.01h-9.278v-6.471h17.465v18.283C1051.575,803.787,1047.716,807.217,1041.635,807.217Z" transform="translate(-955.108 -779.539)" fill="url(#linear-gradient-3)"/>
    <path id="Контур_2433" data-name="Контур 2433" d="M1110.912,802.5H1099.88l-1.637,4.366H1089.9l11.656-27.327h8.343l11.266,27.327h-8.655Zm-2.145-5.925-3.275-8.927-3.352,8.927Z" transform="translate(-987.043 -779.539)" fill="url(#linear-gradient-4)"/>
  </g>
</svg>
